<?xml version="1.0" standalone="no"?><svg xmlns="http://www.w3.org/2000/svg" viewBox="0 0 1440 320"><path fill="orchid" fill-opacity="1" d="M0,32L20,42.7C40,53,80,75,120,74.7C160,75,200,53,240,64C280,75,320,117,360,122.7C400,128,440,96,480,122.7C520,149,560,235,600,240C640,245,680,171,720,154.7C760,139,800,181,840,170.7C880,160,920,96,960,96C1000,96,1040,160,1080,176C1120,192,1160,160,1200,176C1240,192,1280,256,1320,245.3C1360,235,1400,149,1420,106.7L1440,64L1440,0L1420,0C1400,0,1360,0,1320,0C1280,0,1240,0,1200,0C1160,0,1120,0,1080,0C1040,0,1000,0,960,0C920,0,880,0,840,0C800,0,760,0,720,0C680,0,640,0,600,0C560,0,520,0,480,0C440,0,400,0,360,0C320,0,280,0,240,0C200,0,160,0,120,0C80,0,40,0,20,0L0,0Z"></path></svg>