<?xml version="1.0" standalone="no"?><svg xmlns="http://www.w3.org/2000/svg" viewBox="0 0 1440 320"><path fill="#dcc3df" fill-opacity="1" d="M0,288L21.8,277.3C43.6,267,87,245,131,240C174.5,235,218,245,262,213.3C305.5,181,349,107,393,90.7C436.4,75,480,117,524,160C567.3,203,611,245,655,245.3C698.2,245,742,203,785,186.7C829.1,171,873,181,916,197.3C960,213,1004,235,1047,213.3C1090.9,192,1135,128,1178,117.3C1221.8,107,1265,149,1309,165.3C1352.7,181,1396,171,1418,165.3L1440,160L1440,320L1418.2,320C1396.4,320,1353,320,1309,320C1265.5,320,1222,320,1178,320C1134.5,320,1091,320,1047,320C1003.6,320,960,320,916,320C872.7,320,829,320,785,320C741.8,320,698,320,655,320C610.9,320,567,320,524,320C480,320,436,320,393,320C349.1,320,305,320,262,320C218.2,320,175,320,131,320C87.3,320,44,320,22,320L0,320Z"></path></svg>