<?xml version="1.0" standalone="no"?>
<svg xmlns:xlink="http://www.w3.org/1999/xlink" id="wave" style="transform:rotate(180deg); transition: 0.3s" viewBox="0 0 1440 450" version="1.1" xmlns="http://www.w3.org/2000/svg"><defs><linearGradient id="sw-gradient-0" x1="0" x2="0" y1="1" y2="0"><stop stop-color="rgba(199.871, 62, 243, 1)" offset="0%"/><stop stop-color="rgba(166.759, 8.924, 184.837, 1)" offset="100%"/></linearGradient></defs><path style="transform:translate(0, 0px); opacity:1" fill="url(#sw-gradient-0)" d="M0,90L48,127.5C96,165,192,240,288,225C384,210,480,105,576,60C672,15,768,30,864,52.5C960,75,1056,105,1152,157.5C1248,210,1344,285,1440,277.5C1536,270,1632,180,1728,135C1824,90,1920,90,2016,135C2112,180,2208,270,2304,262.5C2400,255,2496,150,2592,135C2688,120,2784,195,2880,247.5C2976,300,3072,330,3168,315C3264,300,3360,240,3456,210C3552,180,3648,180,3744,210C3840,240,3936,300,4032,285C4128,270,4224,180,4320,172.5C4416,165,4512,240,4608,240C4704,240,4800,165,4896,120C4992,75,5088,60,5184,75C5280,90,5376,135,5472,187.5C5568,240,5664,300,5760,322.5C5856,345,5952,330,6048,270C6144,210,6240,105,6336,75C6432,45,6528,90,6624,97.5C6720,105,6816,75,6864,60L6912,45L6912,450L6864,450C6816,450,6720,450,6624,450C6528,450,6432,450,6336,450C6240,450,6144,450,6048,450C5952,450,5856,450,5760,450C5664,450,5568,450,5472,450C5376,450,5280,450,5184,450C5088,450,4992,450,4896,450C4800,450,4704,450,4608,450C4512,450,4416,450,4320,450C4224,450,4128,450,4032,450C3936,450,3840,450,3744,450C3648,450,3552,450,3456,450C3360,450,3264,450,3168,450C3072,450,2976,450,2880,450C2784,450,2688,450,2592,450C2496,450,2400,450,2304,450C2208,450,2112,450,2016,450C1920,450,1824,450,1728,450C1632,450,1536,450,1440,450C1344,450,1248,450,1152,450C1056,450,960,450,864,450C768,450,672,450,576,450C480,450,384,450,288,450C192,450,96,450,48,450L0,450Z"/></svg>