<?xml version="1.0" standalone="no"?>
<svg xmlns:xlink="http://www.w3.org/1999/xlink" id="wave" style="transform:rotate(0deg); transition: 0.3s" viewBox="0 0 1440 490" version="1.1" xmlns="http://www.w3.org/2000/svg"><defs><linearGradient id="sw-gradient-0" x1="0" x2="0" y1="1" y2="0"><stop stop-color="rgba(188.01, 65.093, 207.508, 1)" offset="0%"/><stop stop-color="rgba(136.607, 19.762, 155.142, 1)" offset="100%"/></linearGradient></defs><path style="transform:translate(0, 0px); opacity:1" fill="url(#sw-gradient-0)" d="M0,343L16,359.3C32,376,64,408,96,359.3C128,310,160,180,192,155.2C224,131,256,212,288,277.7C320,343,352,392,384,400.2C416,408,448,376,480,343C512,310,544,278,576,285.8C608,294,640,343,672,334.8C704,327,736,261,768,220.5C800,180,832,163,864,163.3C896,163,928,180,960,155.2C992,131,1024,65,1056,57.2C1088,49,1120,98,1152,130.7C1184,163,1216,180,1248,220.5C1280,261,1312,327,1344,310.3C1376,294,1408,196,1440,196C1472,196,1504,294,1536,277.7C1568,261,1600,131,1632,138.8C1664,147,1696,294,1728,318.5C1760,343,1792,245,1824,187.8C1856,131,1888,114,1920,138.8C1952,163,1984,229,2016,253.2C2048,278,2080,261,2112,269.5C2144,278,2176,310,2208,294C2240,278,2272,212,2288,179.7L2304,147L2304,490L2288,490C2272,490,2240,490,2208,490C2176,490,2144,490,2112,490C2080,490,2048,490,2016,490C1984,490,1952,490,1920,490C1888,490,1856,490,1824,490C1792,490,1760,490,1728,490C1696,490,1664,490,1632,490C1600,490,1568,490,1536,490C1504,490,1472,490,1440,490C1408,490,1376,490,1344,490C1312,490,1280,490,1248,490C1216,490,1184,490,1152,490C1120,490,1088,490,1056,490C1024,490,992,490,960,490C928,490,896,490,864,490C832,490,800,490,768,490C736,490,704,490,672,490C640,490,608,490,576,490C544,490,512,490,480,490C448,490,416,490,384,490C352,490,320,490,288,490C256,490,224,490,192,490C160,490,128,490,96,490C64,490,32,490,16,490L0,490Z"/></svg>