<?xml version="1.0" standalone="no"?><svg xmlns="http://www.w3.org/2000/svg" viewBox="0 0 1440 320"><path fill="#933ebd" fill-opacity="1" d="M0,32L14.1,37.3C28.2,43,56,53,85,96C112.9,139,141,213,169,256C197.6,299,226,309,254,304C282.4,299,311,277,339,272C367.1,267,395,277,424,245.3C451.8,213,480,139,508,112C536.5,85,565,107,593,96C621.2,85,649,43,678,48C705.9,53,734,107,762,128C790.6,149,819,139,847,149.3C875.3,160,904,192,932,170.7C960,149,988,75,1016,37.3C1044.7,0,1073,0,1101,16C1129.4,32,1158,64,1186,106.7C1214.1,149,1242,203,1271,208C1298.8,213,1327,171,1355,138.7C1383.5,107,1412,85,1426,74.7L1440,64L1440,320L1425.9,320C1411.8,320,1384,320,1355,320C1327.1,320,1299,320,1271,320C1242.4,320,1214,320,1186,320C1157.6,320,1129,320,1101,320C1072.9,320,1045,320,1016,320C988.2,320,960,320,932,320C903.5,320,875,320,847,320C818.8,320,791,320,762,320C734.1,320,706,320,678,320C649.4,320,621,320,593,320C564.7,320,536,320,508,320C480,320,452,320,424,320C395.3,320,367,320,339,320C310.6,320,282,320,254,320C225.9,320,198,320,169,320C141.2,320,113,320,85,320C56.5,320,28,320,14,320L0,320Z"></path></svg>