<?xml version="1.0" standalone="no"?>
<svg xmlns:xlink="http://www.w3.org/1999/xlink" id="wave" style="transform:rotate(180deg); transition: 0.3s" viewBox="0 0 1440 490" version="1.1" xmlns="http://www.w3.org/2000/svg"><defs><linearGradient id="sw-gradient-0" x1="0" x2="0" y1="1" y2="0"><stop stop-color="rgba(187.606, 62, 243, 1)" offset="0%"/><stop stop-color="rgba(97.661, 11, 255, 1)" offset="100%"/></linearGradient></defs><path style="transform:translate(0, 0px); opacity:1" fill="url(#sw-gradient-0)" d="M0,147L48,196C96,245,192,343,288,367.5C384,392,480,343,576,269.5C672,196,768,98,864,106.2C960,114,1056,229,1152,228.7C1248,229,1344,114,1440,81.7C1536,49,1632,98,1728,138.8C1824,180,1920,212,2016,204.2C2112,196,2208,147,2304,122.5C2400,98,2496,98,2592,98C2688,98,2784,98,2880,89.8C2976,82,3072,65,3168,57.2C3264,49,3360,49,3456,49C3552,49,3648,49,3744,65.3C3840,82,3936,114,4032,138.8C4128,163,4224,180,4320,179.7C4416,180,4512,163,4608,155.2C4704,147,4800,147,4896,155.2C4992,163,5088,180,5184,187.8C5280,196,5376,196,5472,204.2C5568,212,5664,229,5760,261.3C5856,294,5952,343,6048,375.7C6144,408,6240,425,6336,392C6432,359,6528,278,6624,269.5C6720,261,6816,327,6864,359.3L6912,392L6912,490L6864,490C6816,490,6720,490,6624,490C6528,490,6432,490,6336,490C6240,490,6144,490,6048,490C5952,490,5856,490,5760,490C5664,490,5568,490,5472,490C5376,490,5280,490,5184,490C5088,490,4992,490,4896,490C4800,490,4704,490,4608,490C4512,490,4416,490,4320,490C4224,490,4128,490,4032,490C3936,490,3840,490,3744,490C3648,490,3552,490,3456,490C3360,490,3264,490,3168,490C3072,490,2976,490,2880,490C2784,490,2688,490,2592,490C2496,490,2400,490,2304,490C2208,490,2112,490,2016,490C1920,490,1824,490,1728,490C1632,490,1536,490,1440,490C1344,490,1248,490,1152,490C1056,490,960,490,864,490C768,490,672,490,576,490C480,490,384,490,288,490C192,490,96,490,48,490L0,490Z"/></svg>